<mxfile host="65bd71144e">
    <diagram name="US01_DA" id="gxlYZ7YaS5Yf2aPlKYuP">
        <mxGraphModel dx="2996" dy="1956" grid="1" gridSize="10" guides="1" tooltips="1" connect="1" arrows="1" fold="1" page="1" pageScale="1" pageWidth="827" pageHeight="1169" math="0" shadow="0">
            <root>
                <mxCell id="0"/>
                <mxCell id="1" parent="0"/>
                <mxCell id="FiaSwAk3uuY5vDZWoJKL-141" style="edgeStyle=orthogonalEdgeStyle;rounded=0;orthogonalLoop=1;jettySize=auto;html=1;exitX=0.5;exitY=1;exitDx=0;exitDy=0;entryX=0.5;entryY=0;entryDx=0;entryDy=0;" parent="1" source="FiaSwAk3uuY5vDZWoJKL-1" target="FiaSwAk3uuY5vDZWoJKL-2" edge="1">
                    <mxGeometry relative="1" as="geometry">
                        <Array as="points">
                            <mxPoint x="1550" y="180"/>
                            <mxPoint x="-370" y="180"/>
                        </Array>
                    </mxGeometry>
                </mxCell>
                <mxCell id="FiaSwAk3uuY5vDZWoJKL-142" style="edgeStyle=orthogonalEdgeStyle;rounded=0;orthogonalLoop=1;jettySize=auto;html=1;exitX=0.5;exitY=1;exitDx=0;exitDy=0;entryX=0.5;entryY=0;entryDx=0;entryDy=0;" parent="1" source="FiaSwAk3uuY5vDZWoJKL-1" target="FiaSwAk3uuY5vDZWoJKL-3" edge="1">
                    <mxGeometry relative="1" as="geometry"/>
                </mxCell>
                <mxCell id="FiaSwAk3uuY5vDZWoJKL-1" value="div" style="rounded=0;whiteSpace=wrap;html=1;fillColor=#fff2cc;strokeColor=#d6b656;" parent="1" vertex="1">
                    <mxGeometry x="1490" y="-40" width="120" height="60" as="geometry"/>
                </mxCell>
                <mxCell id="FiaSwAk3uuY5vDZWoJKL-20" style="edgeStyle=orthogonalEdgeStyle;rounded=0;orthogonalLoop=1;jettySize=auto;html=1;exitX=0.5;exitY=1;exitDx=0;exitDy=0;" parent="1" source="FiaSwAk3uuY5vDZWoJKL-2" target="FiaSwAk3uuY5vDZWoJKL-8" edge="1">
                    <mxGeometry relative="1" as="geometry"/>
                </mxCell>
                <mxCell id="FiaSwAk3uuY5vDZWoJKL-21" style="edgeStyle=orthogonalEdgeStyle;rounded=0;orthogonalLoop=1;jettySize=auto;html=1;exitX=0.5;exitY=1;exitDx=0;exitDy=0;entryX=0.5;entryY=0;entryDx=0;entryDy=0;" parent="1" source="FiaSwAk3uuY5vDZWoJKL-2" target="FiaSwAk3uuY5vDZWoJKL-5" edge="1">
                    <mxGeometry relative="1" as="geometry"/>
                </mxCell>
                <mxCell id="FiaSwAk3uuY5vDZWoJKL-2" value="Left Content" style="rounded=0;whiteSpace=wrap;html=1;fillColor=#ffe6cc;strokeColor=#d79b00;" parent="1" vertex="1">
                    <mxGeometry x="-430" y="336" width="120" height="60" as="geometry"/>
                </mxCell>
                <mxCell id="FiaSwAk3uuY5vDZWoJKL-143" style="edgeStyle=orthogonalEdgeStyle;rounded=0;orthogonalLoop=1;jettySize=auto;html=1;exitX=0.5;exitY=1;exitDx=0;exitDy=0;entryX=0.5;entryY=0;entryDx=0;entryDy=0;" parent="1" source="FiaSwAk3uuY5vDZWoJKL-3" target="FiaSwAk3uuY5vDZWoJKL-37" edge="1">
                    <mxGeometry relative="1" as="geometry">
                        <Array as="points">
                            <mxPoint x="3290" y="480"/>
                            <mxPoint x="2930" y="480"/>
                        </Array>
                    </mxGeometry>
                </mxCell>
                <mxCell id="FiaSwAk3uuY5vDZWoJKL-145" style="edgeStyle=orthogonalEdgeStyle;rounded=0;orthogonalLoop=1;jettySize=auto;html=1;exitX=0.5;exitY=1;exitDx=0;exitDy=0;entryX=0.5;entryY=0;entryDx=0;entryDy=0;" parent="1" edge="1">
                    <mxGeometry relative="1" as="geometry">
                        <mxPoint x="3290" y="317.5000000000002" as="sourcePoint"/>
                        <mxPoint x="4090" y="632.5" as="targetPoint"/>
                        <Array as="points">
                            <mxPoint x="3290" y="480"/>
                            <mxPoint x="4090" y="480"/>
                        </Array>
                    </mxGeometry>
                </mxCell>
                <mxCell id="FiaSwAk3uuY5vDZWoJKL-146" style="edgeStyle=orthogonalEdgeStyle;rounded=0;orthogonalLoop=1;jettySize=auto;html=1;exitX=0.5;exitY=1;exitDx=0;exitDy=0;entryX=0.5;entryY=0;entryDx=0;entryDy=0;" parent="1" source="FiaSwAk3uuY5vDZWoJKL-3" target="FiaSwAk3uuY5vDZWoJKL-91" edge="1">
                    <mxGeometry relative="1" as="geometry">
                        <Array as="points">
                            <mxPoint x="3290" y="480"/>
                            <mxPoint x="5270" y="480"/>
                        </Array>
                    </mxGeometry>
                </mxCell>
                <mxCell id="FiaSwAk3uuY5vDZWoJKL-147" style="edgeStyle=orthogonalEdgeStyle;rounded=0;orthogonalLoop=1;jettySize=auto;html=1;exitX=0.5;exitY=1;exitDx=0;exitDy=0;entryX=0.5;entryY=0;entryDx=0;entryDy=0;" parent="1" target="FiaSwAk3uuY5vDZWoJKL-122" edge="1">
                    <mxGeometry relative="1" as="geometry">
                        <mxPoint x="3290" y="479.5" as="sourcePoint"/>
                        <mxPoint x="6290" y="794.5" as="targetPoint"/>
                    </mxGeometry>
                </mxCell>
                <mxCell id="FiaSwAk3uuY5vDZWoJKL-163" style="edgeStyle=orthogonalEdgeStyle;rounded=0;orthogonalLoop=1;jettySize=auto;html=1;exitX=0.5;exitY=1;exitDx=0;exitDy=0;entryX=0.5;entryY=0;entryDx=0;entryDy=0;" parent="1" source="FiaSwAk3uuY5vDZWoJKL-3" target="FiaSwAk3uuY5vDZWoJKL-36" edge="1">
                    <mxGeometry relative="1" as="geometry">
                        <Array as="points">
                            <mxPoint x="3290" y="480"/>
                            <mxPoint x="1270" y="480"/>
                        </Array>
                    </mxGeometry>
                </mxCell>
                <mxCell id="FiaSwAk3uuY5vDZWoJKL-3" value="Right Content" style="rounded=0;whiteSpace=wrap;html=1;fillColor=#ffe6cc;strokeColor=#d79b00;" parent="1" vertex="1">
                    <mxGeometry x="3230" y="340" width="120" height="60" as="geometry"/>
                </mxCell>
                <mxCell id="FiaSwAk3uuY5vDZWoJKL-22" style="edgeStyle=orthogonalEdgeStyle;rounded=0;orthogonalLoop=1;jettySize=auto;html=1;exitX=0.5;exitY=1;exitDx=0;exitDy=0;entryX=0.5;entryY=0;entryDx=0;entryDy=0;" parent="1" source="FiaSwAk3uuY5vDZWoJKL-5" target="FiaSwAk3uuY5vDZWoJKL-7" edge="1">
                    <mxGeometry relative="1" as="geometry"/>
                </mxCell>
                <mxCell id="FiaSwAk3uuY5vDZWoJKL-23" style="edgeStyle=orthogonalEdgeStyle;rounded=0;orthogonalLoop=1;jettySize=auto;html=1;exitX=0.5;exitY=1;exitDx=0;exitDy=0;entryX=0.5;entryY=0;entryDx=0;entryDy=0;" parent="1" source="FiaSwAk3uuY5vDZWoJKL-5" target="FiaSwAk3uuY5vDZWoJKL-6" edge="1">
                    <mxGeometry relative="1" as="geometry"/>
                </mxCell>
                <mxCell id="FiaSwAk3uuY5vDZWoJKL-5" value="Search" style="rounded=0;whiteSpace=wrap;html=1;fillColor=#f8cecc;strokeColor=#b85450;" parent="1" vertex="1">
                    <mxGeometry x="-840" y="701" width="120" height="50" as="geometry"/>
                </mxCell>
                <mxCell id="FiaSwAk3uuY5vDZWoJKL-6" value="Iconic Input" style="rounded=0;whiteSpace=wrap;html=1;" parent="1" vertex="1">
                    <mxGeometry x="-950" y="858" width="120" height="50" as="geometry"/>
                </mxCell>
                <mxCell id="FiaSwAk3uuY5vDZWoJKL-7" value="Button" style="rounded=0;whiteSpace=wrap;html=1;" parent="1" vertex="1">
                    <mxGeometry x="-730" y="858" width="120" height="50" as="geometry"/>
                </mxCell>
                <mxCell id="FiaSwAk3uuY5vDZWoJKL-25" style="edgeStyle=orthogonalEdgeStyle;rounded=0;orthogonalLoop=1;jettySize=auto;html=1;exitX=0.5;exitY=1;exitDx=0;exitDy=0;entryX=0.5;entryY=0;entryDx=0;entryDy=0;" parent="1" source="FiaSwAk3uuY5vDZWoJKL-8" target="FiaSwAk3uuY5vDZWoJKL-10" edge="1">
                    <mxGeometry relative="1" as="geometry"/>
                </mxCell>
                <mxCell id="FiaSwAk3uuY5vDZWoJKL-26" style="edgeStyle=orthogonalEdgeStyle;rounded=0;orthogonalLoop=1;jettySize=auto;html=1;exitX=0.5;exitY=1;exitDx=0;exitDy=0;entryX=0.5;entryY=0;entryDx=0;entryDy=0;" parent="1" source="FiaSwAk3uuY5vDZWoJKL-8" target="FiaSwAk3uuY5vDZWoJKL-11" edge="1">
                    <mxGeometry relative="1" as="geometry"/>
                </mxCell>
                <mxCell id="FiaSwAk3uuY5vDZWoJKL-8" value="Card" style="rounded=0;whiteSpace=wrap;html=1;fillColor=#f8cecc;strokeColor=#b85450;" parent="1" vertex="1">
                    <mxGeometry x="-66" y="695" width="120" height="50" as="geometry"/>
                </mxCell>
                <mxCell id="FiaSwAk3uuY5vDZWoJKL-30" style="edgeStyle=orthogonalEdgeStyle;rounded=0;orthogonalLoop=1;jettySize=auto;html=1;exitX=0.5;exitY=1;exitDx=0;exitDy=0;entryX=0.5;entryY=0;entryDx=0;entryDy=0;" parent="1" source="FiaSwAk3uuY5vDZWoJKL-9" target="FiaSwAk3uuY5vDZWoJKL-13" edge="1">
                    <mxGeometry relative="1" as="geometry"/>
                </mxCell>
                <mxCell id="FiaSwAk3uuY5vDZWoJKL-9" value="Card Header" style="rounded=0;whiteSpace=wrap;html=1;" parent="1" vertex="1">
                    <mxGeometry x="-380" y="857" width="120" height="50" as="geometry"/>
                </mxCell>
                <mxCell id="FiaSwAk3uuY5vDZWoJKL-27" style="edgeStyle=orthogonalEdgeStyle;rounded=0;orthogonalLoop=1;jettySize=auto;html=1;exitX=0.5;exitY=1;exitDx=0;exitDy=0;entryX=0.5;entryY=0;entryDx=0;entryDy=0;" parent="1" source="FiaSwAk3uuY5vDZWoJKL-10" target="FiaSwAk3uuY5vDZWoJKL-14" edge="1">
                    <mxGeometry relative="1" as="geometry"/>
                </mxCell>
                <mxCell id="FiaSwAk3uuY5vDZWoJKL-28" style="edgeStyle=orthogonalEdgeStyle;rounded=0;orthogonalLoop=1;jettySize=auto;html=1;exitX=0.5;exitY=1;exitDx=0;exitDy=0;entryX=0.5;entryY=0;entryDx=0;entryDy=0;" parent="1" source="FiaSwAk3uuY5vDZWoJKL-10" target="FiaSwAk3uuY5vDZWoJKL-15" edge="1">
                    <mxGeometry relative="1" as="geometry"/>
                </mxCell>
                <mxCell id="FiaSwAk3uuY5vDZWoJKL-10" value="Card Content" style="rounded=0;whiteSpace=wrap;html=1;" parent="1" vertex="1">
                    <mxGeometry x="-66" y="857" width="120" height="50" as="geometry"/>
                </mxCell>
                <mxCell id="FiaSwAk3uuY5vDZWoJKL-31" style="edgeStyle=orthogonalEdgeStyle;rounded=0;orthogonalLoop=1;jettySize=auto;html=1;exitX=0.5;exitY=1;exitDx=0;exitDy=0;entryX=0.5;entryY=0;entryDx=0;entryDy=0;" parent="1" source="FiaSwAk3uuY5vDZWoJKL-11" target="FiaSwAk3uuY5vDZWoJKL-16" edge="1">
                    <mxGeometry relative="1" as="geometry"/>
                </mxCell>
                <mxCell id="FiaSwAk3uuY5vDZWoJKL-32" style="edgeStyle=orthogonalEdgeStyle;rounded=0;orthogonalLoop=1;jettySize=auto;html=1;exitX=0.5;exitY=1;exitDx=0;exitDy=0;entryX=0.5;entryY=0;entryDx=0;entryDy=0;" parent="1" source="FiaSwAk3uuY5vDZWoJKL-11" target="FiaSwAk3uuY5vDZWoJKL-17" edge="1">
                    <mxGeometry relative="1" as="geometry"/>
                </mxCell>
                <mxCell id="FiaSwAk3uuY5vDZWoJKL-11" value="Card Footer" style="rounded=0;whiteSpace=wrap;html=1;" parent="1" vertex="1">
                    <mxGeometry x="300" y="857" width="120" height="50" as="geometry"/>
                </mxCell>
                <mxCell id="FiaSwAk3uuY5vDZWoJKL-12" value="Title" style="rounded=0;whiteSpace=wrap;html=1;" parent="1" vertex="1">
                    <mxGeometry x="-460" y="980" width="120" height="50" as="geometry"/>
                </mxCell>
                <mxCell id="FiaSwAk3uuY5vDZWoJKL-13" value="Status" style="rounded=0;whiteSpace=wrap;html=1;" parent="1" vertex="1">
                    <mxGeometry x="-310" y="980" width="120" height="50" as="geometry"/>
                </mxCell>
                <mxCell id="FiaSwAk3uuY5vDZWoJKL-14" value="Label" style="rounded=0;whiteSpace=wrap;html=1;" parent="1" vertex="1">
                    <mxGeometry x="-140" y="980" width="120" height="50" as="geometry"/>
                </mxCell>
                <mxCell id="FiaSwAk3uuY5vDZWoJKL-15" value="DDay" style="rounded=0;whiteSpace=wrap;html=1;" parent="1" vertex="1">
                    <mxGeometry x="30" y="980" width="120" height="50" as="geometry"/>
                </mxCell>
                <mxCell id="FiaSwAk3uuY5vDZWoJKL-16" value="Label" style="rounded=0;whiteSpace=wrap;html=1;" parent="1" vertex="1">
                    <mxGeometry x="210" y="980" width="120" height="50" as="geometry"/>
                </mxCell>
                <mxCell id="FiaSwAk3uuY5vDZWoJKL-17" value="Progress Bar" style="rounded=0;whiteSpace=wrap;html=1;" parent="1" vertex="1">
                    <mxGeometry x="400" y="980" width="120" height="50" as="geometry"/>
                </mxCell>
                <mxCell id="FiaSwAk3uuY5vDZWoJKL-24" style="edgeStyle=orthogonalEdgeStyle;rounded=0;orthogonalLoop=1;jettySize=auto;html=1;exitX=0.5;exitY=1;exitDx=0;exitDy=0;entryX=0.5;entryY=0;entryDx=0;entryDy=0;" parent="1" source="FiaSwAk3uuY5vDZWoJKL-8" target="FiaSwAk3uuY5vDZWoJKL-9" edge="1">
                    <mxGeometry relative="1" as="geometry"/>
                </mxCell>
                <mxCell id="FiaSwAk3uuY5vDZWoJKL-29" style="edgeStyle=orthogonalEdgeStyle;rounded=0;orthogonalLoop=1;jettySize=auto;html=1;exitX=0.5;exitY=1;exitDx=0;exitDy=0;entryX=0.583;entryY=0;entryDx=0;entryDy=0;entryPerimeter=0;" parent="1" source="FiaSwAk3uuY5vDZWoJKL-9" target="FiaSwAk3uuY5vDZWoJKL-12" edge="1">
                    <mxGeometry relative="1" as="geometry"/>
                </mxCell>
                <mxCell id="FiaSwAk3uuY5vDZWoJKL-148" style="edgeStyle=orthogonalEdgeStyle;rounded=0;orthogonalLoop=1;jettySize=auto;html=1;exitX=0.5;exitY=1;exitDx=0;exitDy=0;" parent="1" source="FiaSwAk3uuY5vDZWoJKL-36" target="FiaSwAk3uuY5vDZWoJKL-42" edge="1">
                    <mxGeometry relative="1" as="geometry"/>
                </mxCell>
                <mxCell id="FiaSwAk3uuY5vDZWoJKL-36" value="Card" style="rounded=0;whiteSpace=wrap;html=1;fillColor=#f8cecc;strokeColor=#b85450;" parent="1" vertex="1">
                    <mxGeometry x="1210" y="632.5" width="120" height="60" as="geometry"/>
                </mxCell>
                <mxCell id="FiaSwAk3uuY5vDZWoJKL-115" style="edgeStyle=orthogonalEdgeStyle;rounded=0;orthogonalLoop=1;jettySize=auto;html=1;exitX=0.5;exitY=1;exitDx=0;exitDy=0;" parent="1" source="FiaSwAk3uuY5vDZWoJKL-37" target="FiaSwAk3uuY5vDZWoJKL-57" edge="1">
                    <mxGeometry relative="1" as="geometry">
                        <mxPoint x="2930" y="754" as="sourcePoint"/>
                    </mxGeometry>
                </mxCell>
                <mxCell id="FiaSwAk3uuY5vDZWoJKL-37" value="Card" style="rounded=0;whiteSpace=wrap;html=1;fillColor=#f8cecc;strokeColor=#b85450;" parent="1" vertex="1">
                    <mxGeometry x="2870" y="630" width="120" height="60" as="geometry"/>
                </mxCell>
                <mxCell id="FiaSwAk3uuY5vDZWoJKL-77" style="edgeStyle=orthogonalEdgeStyle;rounded=0;orthogonalLoop=1;jettySize=auto;html=1;exitX=0.5;exitY=1;exitDx=0;exitDy=0;" parent="1" source="FiaSwAk3uuY5vDZWoJKL-39" target="FiaSwAk3uuY5vDZWoJKL-65" edge="1">
                    <mxGeometry relative="1" as="geometry">
                        <mxPoint x="4090" y="764" as="sourcePoint"/>
                    </mxGeometry>
                </mxCell>
                <mxCell id="FiaSwAk3uuY5vDZWoJKL-82" style="edgeStyle=orthogonalEdgeStyle;rounded=0;orthogonalLoop=1;jettySize=auto;html=1;exitX=0.5;exitY=1;exitDx=0;exitDy=0;" parent="1" source="FiaSwAk3uuY5vDZWoJKL-39" target="FiaSwAk3uuY5vDZWoJKL-66" edge="1">
                    <mxGeometry relative="1" as="geometry">
                        <mxPoint x="4090" y="764" as="sourcePoint"/>
                    </mxGeometry>
                </mxCell>
                <mxCell id="FiaSwAk3uuY5vDZWoJKL-39" value="Card" style="rounded=0;whiteSpace=wrap;html=1;fillColor=#f8cecc;strokeColor=#b85450;" parent="1" vertex="1">
                    <mxGeometry x="4030" y="640" width="120" height="60" as="geometry"/>
                </mxCell>
                <mxCell id="FiaSwAk3uuY5vDZWoJKL-150" style="edgeStyle=orthogonalEdgeStyle;rounded=0;orthogonalLoop=1;jettySize=auto;html=1;exitX=0.5;exitY=1;exitDx=0;exitDy=0;entryX=0.5;entryY=0;entryDx=0;entryDy=0;" parent="1" source="FiaSwAk3uuY5vDZWoJKL-42" target="FiaSwAk3uuY5vDZWoJKL-45" edge="1">
                    <mxGeometry relative="1" as="geometry"/>
                </mxCell>
                <mxCell id="FiaSwAk3uuY5vDZWoJKL-162" style="edgeStyle=orthogonalEdgeStyle;rounded=0;orthogonalLoop=1;jettySize=auto;html=1;exitX=0.5;exitY=1;exitDx=0;exitDy=0;" parent="1" source="FiaSwAk3uuY5vDZWoJKL-42" target="FiaSwAk3uuY5vDZWoJKL-43" edge="1">
                    <mxGeometry relative="1" as="geometry"/>
                </mxCell>
                <mxCell id="FiaSwAk3uuY5vDZWoJKL-42" value="Card Hader" style="rounded=0;whiteSpace=wrap;html=1;" parent="1" vertex="1">
                    <mxGeometry x="830" y="799.5" width="120" height="60" as="geometry"/>
                </mxCell>
                <mxCell id="FiaSwAk3uuY5vDZWoJKL-43" value="Line" style="rounded=0;whiteSpace=wrap;html=1;" parent="1" vertex="1">
                    <mxGeometry x="921" y="922.5" width="120" height="60" as="geometry"/>
                </mxCell>
                <mxCell id="FiaSwAk3uuY5vDZWoJKL-151" style="edgeStyle=orthogonalEdgeStyle;rounded=0;orthogonalLoop=1;jettySize=auto;html=1;exitX=0.5;exitY=1;exitDx=0;exitDy=0;entryX=0.5;entryY=0;entryDx=0;entryDy=0;" parent="1" source="FiaSwAk3uuY5vDZWoJKL-44" target="FiaSwAk3uuY5vDZWoJKL-47" edge="1">
                    <mxGeometry relative="1" as="geometry"/>
                </mxCell>
                <mxCell id="FiaSwAk3uuY5vDZWoJKL-154" style="edgeStyle=orthogonalEdgeStyle;rounded=0;orthogonalLoop=1;jettySize=auto;html=1;exitX=0.5;exitY=1;exitDx=0;exitDy=0;" parent="1" source="FiaSwAk3uuY5vDZWoJKL-44" target="FiaSwAk3uuY5vDZWoJKL-48" edge="1">
                    <mxGeometry relative="1" as="geometry"/>
                </mxCell>
                <mxCell id="FiaSwAk3uuY5vDZWoJKL-157" style="edgeStyle=orthogonalEdgeStyle;rounded=0;orthogonalLoop=1;jettySize=auto;html=1;exitX=0.5;exitY=1;exitDx=0;exitDy=0;entryX=0.5;entryY=0;entryDx=0;entryDy=0;" parent="1" source="FiaSwAk3uuY5vDZWoJKL-44" target="FiaSwAk3uuY5vDZWoJKL-49" edge="1">
                    <mxGeometry relative="1" as="geometry"/>
                </mxCell>
                <mxCell id="FiaSwAk3uuY5vDZWoJKL-159" style="edgeStyle=orthogonalEdgeStyle;rounded=0;orthogonalLoop=1;jettySize=auto;html=1;exitX=0.5;exitY=1;exitDx=0;exitDy=0;entryX=0.5;entryY=0;entryDx=0;entryDy=0;" parent="1" source="FiaSwAk3uuY5vDZWoJKL-44" target="FiaSwAk3uuY5vDZWoJKL-46" edge="1">
                    <mxGeometry relative="1" as="geometry"/>
                </mxCell>
                <mxCell id="FiaSwAk3uuY5vDZWoJKL-161" style="edgeStyle=orthogonalEdgeStyle;rounded=0;orthogonalLoop=1;jettySize=auto;html=1;exitX=0.5;exitY=1;exitDx=0;exitDy=0;" parent="1" source="FiaSwAk3uuY5vDZWoJKL-44" target="FiaSwAk3uuY5vDZWoJKL-50" edge="1">
                    <mxGeometry relative="1" as="geometry"/>
                </mxCell>
                <mxCell id="FiaSwAk3uuY5vDZWoJKL-44" value="Card Content" style="rounded=0;whiteSpace=wrap;html=1;" parent="1" vertex="1">
                    <mxGeometry x="1620" y="789.5" width="120" height="60" as="geometry"/>
                </mxCell>
                <mxCell id="FiaSwAk3uuY5vDZWoJKL-45" value="Card Title" style="rounded=0;whiteSpace=wrap;html=1;" parent="1" vertex="1">
                    <mxGeometry x="741" y="922.5" width="120" height="60" as="geometry"/>
                </mxCell>
                <mxCell id="FiaSwAk3uuY5vDZWoJKL-153" style="edgeStyle=orthogonalEdgeStyle;rounded=0;orthogonalLoop=1;jettySize=auto;html=1;exitX=0.5;exitY=1;exitDx=0;exitDy=0;" parent="1" source="FiaSwAk3uuY5vDZWoJKL-46" target="FiaSwAk3uuY5vDZWoJKL-51" edge="1">
                    <mxGeometry relative="1" as="geometry"/>
                </mxCell>
                <mxCell id="FiaSwAk3uuY5vDZWoJKL-158" style="edgeStyle=orthogonalEdgeStyle;rounded=0;orthogonalLoop=1;jettySize=auto;html=1;exitX=0.5;exitY=1;exitDx=0;exitDy=0;entryX=0.5;entryY=0;entryDx=0;entryDy=0;" parent="1" source="FiaSwAk3uuY5vDZWoJKL-46" target="FiaSwAk3uuY5vDZWoJKL-52" edge="1">
                    <mxGeometry relative="1" as="geometry"/>
                </mxCell>
                <mxCell id="FiaSwAk3uuY5vDZWoJKL-46" value="Ready Section" style="rounded=0;whiteSpace=wrap;html=1;" parent="1" vertex="1">
                    <mxGeometry x="1201" y="916.5" width="120" height="60" as="geometry"/>
                </mxCell>
                <mxCell id="FiaSwAk3uuY5vDZWoJKL-47" value="Next" style="rounded=0;whiteSpace=wrap;html=1;" parent="1" vertex="1">
                    <mxGeometry x="1411" y="916.5" width="120" height="60" as="geometry"/>
                </mxCell>
                <mxCell id="FiaSwAk3uuY5vDZWoJKL-152" style="edgeStyle=orthogonalEdgeStyle;rounded=0;orthogonalLoop=1;jettySize=auto;html=1;exitX=0.5;exitY=1;exitDx=0;exitDy=0;" parent="1" source="FiaSwAk3uuY5vDZWoJKL-48" target="FiaSwAk3uuY5vDZWoJKL-53" edge="1">
                    <mxGeometry relative="1" as="geometry"/>
                </mxCell>
                <mxCell id="FiaSwAk3uuY5vDZWoJKL-156" style="edgeStyle=orthogonalEdgeStyle;rounded=0;orthogonalLoop=1;jettySize=auto;html=1;exitX=0.5;exitY=1;exitDx=0;exitDy=0;" parent="1" source="FiaSwAk3uuY5vDZWoJKL-48" target="FiaSwAk3uuY5vDZWoJKL-54" edge="1">
                    <mxGeometry relative="1" as="geometry"/>
                </mxCell>
                <mxCell id="FiaSwAk3uuY5vDZWoJKL-48" value="Develop Section" style="rounded=0;whiteSpace=wrap;html=1;" parent="1" vertex="1">
                    <mxGeometry x="1621" y="916.5" width="120" height="60" as="geometry"/>
                </mxCell>
                <mxCell id="FiaSwAk3uuY5vDZWoJKL-49" value="Next" style="rounded=0;whiteSpace=wrap;html=1;" parent="1" vertex="1">
                    <mxGeometry x="1874" y="916.5" width="120" height="60" as="geometry"/>
                </mxCell>
                <mxCell id="FiaSwAk3uuY5vDZWoJKL-155" style="edgeStyle=orthogonalEdgeStyle;rounded=0;orthogonalLoop=1;jettySize=auto;html=1;exitX=0.5;exitY=1;exitDx=0;exitDy=0;" parent="1" source="FiaSwAk3uuY5vDZWoJKL-50" target="FiaSwAk3uuY5vDZWoJKL-55" edge="1">
                    <mxGeometry relative="1" as="geometry"/>
                </mxCell>
                <mxCell id="FiaSwAk3uuY5vDZWoJKL-160" style="edgeStyle=orthogonalEdgeStyle;rounded=0;orthogonalLoop=1;jettySize=auto;html=1;exitX=0.5;exitY=1;exitDx=0;exitDy=0;entryX=0.5;entryY=0;entryDx=0;entryDy=0;" parent="1" source="FiaSwAk3uuY5vDZWoJKL-50" target="FiaSwAk3uuY5vDZWoJKL-56" edge="1">
                    <mxGeometry relative="1" as="geometry"/>
                </mxCell>
                <mxCell id="FiaSwAk3uuY5vDZWoJKL-50" value="Complete Section" style="rounded=0;whiteSpace=wrap;html=1;" parent="1" vertex="1">
                    <mxGeometry x="2121" y="916.5" width="120" height="60" as="geometry"/>
                </mxCell>
                <mxCell id="FiaSwAk3uuY5vDZWoJKL-51" value="Count" style="rounded=0;whiteSpace=wrap;html=1;" parent="1" vertex="1">
                    <mxGeometry x="1115" y="1067.5" width="120" height="60" as="geometry"/>
                </mxCell>
                <mxCell id="FiaSwAk3uuY5vDZWoJKL-52" value="Label" style="rounded=0;whiteSpace=wrap;html=1;" parent="1" vertex="1">
                    <mxGeometry x="1285" y="1067.5" width="120" height="60" as="geometry"/>
                </mxCell>
                <mxCell id="FiaSwAk3uuY5vDZWoJKL-53" value="Count" style="rounded=0;whiteSpace=wrap;html=1;" parent="1" vertex="1">
                    <mxGeometry x="1540" y="1067.5" width="120" height="60" as="geometry"/>
                </mxCell>
                <mxCell id="FiaSwAk3uuY5vDZWoJKL-54" value="Label" style="rounded=0;whiteSpace=wrap;html=1;" parent="1" vertex="1">
                    <mxGeometry x="1710" y="1067.5" width="120" height="60" as="geometry"/>
                </mxCell>
                <mxCell id="FiaSwAk3uuY5vDZWoJKL-55" value="Count" style="rounded=0;whiteSpace=wrap;html=1;" parent="1" vertex="1">
                    <mxGeometry x="2040" y="1067.5" width="120" height="60" as="geometry"/>
                </mxCell>
                <mxCell id="FiaSwAk3uuY5vDZWoJKL-56" value="Label" style="rounded=0;whiteSpace=wrap;html=1;" parent="1" vertex="1">
                    <mxGeometry x="2210" y="1067.5" width="120" height="60" as="geometry"/>
                </mxCell>
                <mxCell id="FiaSwAk3uuY5vDZWoJKL-116" style="edgeStyle=orthogonalEdgeStyle;rounded=0;orthogonalLoop=1;jettySize=auto;html=1;exitX=0.5;exitY=1;exitDx=0;exitDy=0;entryX=0.5;entryY=0;entryDx=0;entryDy=0;" parent="1" source="FiaSwAk3uuY5vDZWoJKL-57" target="FiaSwAk3uuY5vDZWoJKL-58" edge="1">
                    <mxGeometry relative="1" as="geometry">
                        <mxPoint x="2928" y="918" as="sourcePoint"/>
                    </mxGeometry>
                </mxCell>
                <mxCell id="FiaSwAk3uuY5vDZWoJKL-57" value="Card Content" style="rounded=0;whiteSpace=wrap;html=1;" parent="1" vertex="1">
                    <mxGeometry x="2870" y="794" width="120" height="60" as="geometry"/>
                </mxCell>
                <mxCell id="FiaSwAk3uuY5vDZWoJKL-120" style="edgeStyle=orthogonalEdgeStyle;rounded=0;orthogonalLoop=1;jettySize=auto;html=1;exitX=0.5;exitY=1;exitDx=0;exitDy=0;" parent="1" edge="1">
                    <mxGeometry relative="1" as="geometry">
                        <mxPoint x="2729" y="1018" as="sourcePoint"/>
                        <mxPoint x="2726.999999999999" y="1104" as="targetPoint"/>
                        <Array as="points">
                            <mxPoint x="2727" y="1018"/>
                        </Array>
                    </mxGeometry>
                </mxCell>
                <mxCell id="FiaSwAk3uuY5vDZWoJKL-58" value="div" style="rounded=0;whiteSpace=wrap;html=1;" parent="1" vertex="1">
                    <mxGeometry x="2668" y="958" width="120" height="60" as="geometry"/>
                </mxCell>
                <mxCell id="FiaSwAk3uuY5vDZWoJKL-119" style="edgeStyle=orthogonalEdgeStyle;rounded=0;orthogonalLoop=1;jettySize=auto;html=1;exitX=0.5;exitY=1;exitDx=0;exitDy=0;" parent="1" source="FiaSwAk3uuY5vDZWoJKL-59" target="FiaSwAk3uuY5vDZWoJKL-64" edge="1">
                    <mxGeometry relative="1" as="geometry"/>
                </mxCell>
                <mxCell id="FiaSwAk3uuY5vDZWoJKL-59" value="div" style="rounded=0;whiteSpace=wrap;html=1;" parent="1" vertex="1">
                    <mxGeometry x="3068" y="958" width="120" height="60" as="geometry"/>
                </mxCell>
                <mxCell id="FiaSwAk3uuY5vDZWoJKL-60" value="Sub Title" style="rounded=0;whiteSpace=wrap;html=1;" parent="1" vertex="1">
                    <mxGeometry x="2668" y="1104" width="120" height="60" as="geometry"/>
                </mxCell>
                <mxCell id="FiaSwAk3uuY5vDZWoJKL-61" value="Title" style="rounded=0;whiteSpace=wrap;html=1;" parent="1" vertex="1">
                    <mxGeometry x="2908" y="1104" width="120" height="60" as="geometry"/>
                </mxCell>
                <mxCell id="FiaSwAk3uuY5vDZWoJKL-64" value="Iconic Button" style="rounded=0;whiteSpace=wrap;html=1;" parent="1" vertex="1">
                    <mxGeometry x="3188" y="1104" width="120" height="60" as="geometry"/>
                </mxCell>
                <mxCell id="FiaSwAk3uuY5vDZWoJKL-78" style="edgeStyle=orthogonalEdgeStyle;rounded=0;orthogonalLoop=1;jettySize=auto;html=1;exitX=0.5;exitY=1;exitDx=0;exitDy=0;" parent="1" source="FiaSwAk3uuY5vDZWoJKL-65" target="FiaSwAk3uuY5vDZWoJKL-67" edge="1">
                    <mxGeometry relative="1" as="geometry"/>
                </mxCell>
                <mxCell id="FiaSwAk3uuY5vDZWoJKL-79" style="edgeStyle=orthogonalEdgeStyle;rounded=0;orthogonalLoop=1;jettySize=auto;html=1;exitX=0.5;exitY=1;exitDx=0;exitDy=0;entryX=0.5;entryY=0;entryDx=0;entryDy=0;" parent="1" source="FiaSwAk3uuY5vDZWoJKL-65" target="FiaSwAk3uuY5vDZWoJKL-68" edge="1">
                    <mxGeometry relative="1" as="geometry"/>
                </mxCell>
                <mxCell id="FiaSwAk3uuY5vDZWoJKL-65" value="Card Header" style="rounded=0;whiteSpace=wrap;html=1;" parent="1" vertex="1">
                    <mxGeometry x="3770" y="814" width="120" height="60" as="geometry"/>
                </mxCell>
                <mxCell id="FiaSwAk3uuY5vDZWoJKL-83" style="edgeStyle=orthogonalEdgeStyle;rounded=0;orthogonalLoop=1;jettySize=auto;html=1;exitX=0.5;exitY=1;exitDx=0;exitDy=0;entryX=0.5;entryY=0;entryDx=0;entryDy=0;" parent="1" source="FiaSwAk3uuY5vDZWoJKL-66" target="FiaSwAk3uuY5vDZWoJKL-71" edge="1">
                    <mxGeometry relative="1" as="geometry"/>
                </mxCell>
                <mxCell id="FiaSwAk3uuY5vDZWoJKL-66" value="Card Content" style="rounded=0;whiteSpace=wrap;html=1;" parent="1" vertex="1">
                    <mxGeometry x="4270" y="814" width="120" height="60" as="geometry"/>
                </mxCell>
                <mxCell id="FiaSwAk3uuY5vDZWoJKL-80" style="edgeStyle=orthogonalEdgeStyle;rounded=0;orthogonalLoop=1;jettySize=auto;html=1;exitX=0.5;exitY=1;exitDx=0;exitDy=0;entryX=0.5;entryY=0;entryDx=0;entryDy=0;" parent="1" source="FiaSwAk3uuY5vDZWoJKL-67" target="FiaSwAk3uuY5vDZWoJKL-69" edge="1">
                    <mxGeometry relative="1" as="geometry">
                        <mxPoint x="3670" y="1069" as="sourcePoint"/>
                    </mxGeometry>
                </mxCell>
                <mxCell id="FiaSwAk3uuY5vDZWoJKL-81" style="edgeStyle=orthogonalEdgeStyle;rounded=0;orthogonalLoop=1;jettySize=auto;html=1;exitX=0.5;exitY=1;exitDx=0;exitDy=0;entryX=0.5;entryY=0;entryDx=0;entryDy=0;" parent="1" source="FiaSwAk3uuY5vDZWoJKL-67" target="FiaSwAk3uuY5vDZWoJKL-70" edge="1">
                    <mxGeometry relative="1" as="geometry">
                        <mxPoint x="3670" y="1069" as="sourcePoint"/>
                    </mxGeometry>
                </mxCell>
                <mxCell id="FiaSwAk3uuY5vDZWoJKL-67" value="div" style="rounded=0;whiteSpace=wrap;html=1;" parent="1" vertex="1">
                    <mxGeometry x="3610" y="964.5" width="120" height="60" as="geometry"/>
                </mxCell>
                <mxCell id="FiaSwAk3uuY5vDZWoJKL-68" value="Line" style="rounded=0;whiteSpace=wrap;html=1;" parent="1" vertex="1">
                    <mxGeometry x="3930" y="964.5" width="120" height="60" as="geometry"/>
                </mxCell>
                <mxCell id="FiaSwAk3uuY5vDZWoJKL-69" value="Title" style="rounded=0;whiteSpace=wrap;html=1;" parent="1" vertex="1">
                    <mxGeometry x="3530" y="1109" width="120" height="60" as="geometry"/>
                </mxCell>
                <mxCell id="FiaSwAk3uuY5vDZWoJKL-70" value="Iconic Button" style="rounded=0;whiteSpace=wrap;html=1;" parent="1" vertex="1">
                    <mxGeometry x="3690" y="1109" width="120" height="60" as="geometry"/>
                </mxCell>
                <mxCell id="FiaSwAk3uuY5vDZWoJKL-84" style="edgeStyle=orthogonalEdgeStyle;rounded=0;orthogonalLoop=1;jettySize=auto;html=1;exitX=0.5;exitY=1;exitDx=0;exitDy=0;" parent="1" source="FiaSwAk3uuY5vDZWoJKL-71" edge="1">
                    <mxGeometry relative="1" as="geometry">
                        <mxPoint x="4330.941176470588" y="1089" as="targetPoint"/>
                        <mxPoint x="4331" y="1059" as="sourcePoint"/>
                    </mxGeometry>
                </mxCell>
                <mxCell id="FiaSwAk3uuY5vDZWoJKL-71" value="ul" style="rounded=0;whiteSpace=wrap;html=1;" parent="1" vertex="1">
                    <mxGeometry x="4271" y="953.5" width="120" height="60" as="geometry"/>
                </mxCell>
                <mxCell id="FiaSwAk3uuY5vDZWoJKL-85" style="edgeStyle=orthogonalEdgeStyle;rounded=0;orthogonalLoop=1;jettySize=auto;html=1;exitX=0.5;exitY=1;exitDx=0;exitDy=0;entryX=0.5;entryY=0;entryDx=0;entryDy=0;" parent="1" source="FiaSwAk3uuY5vDZWoJKL-72" target="FiaSwAk3uuY5vDZWoJKL-73" edge="1">
                    <mxGeometry relative="1" as="geometry"/>
                </mxCell>
                <mxCell id="FiaSwAk3uuY5vDZWoJKL-88" style="edgeStyle=orthogonalEdgeStyle;rounded=0;orthogonalLoop=1;jettySize=auto;html=1;exitX=0.5;exitY=1;exitDx=0;exitDy=0;entryX=0.5;entryY=0;entryDx=0;entryDy=0;" parent="1" source="FiaSwAk3uuY5vDZWoJKL-72" target="FiaSwAk3uuY5vDZWoJKL-74" edge="1">
                    <mxGeometry relative="1" as="geometry"/>
                </mxCell>
                <mxCell id="FiaSwAk3uuY5vDZWoJKL-72" value="li" style="rounded=0;whiteSpace=wrap;html=1;" parent="1" vertex="1">
                    <mxGeometry x="4273" y="1094" width="120" height="60" as="geometry"/>
                </mxCell>
                <mxCell id="FiaSwAk3uuY5vDZWoJKL-86" value="" style="edgeStyle=orthogonalEdgeStyle;rounded=0;orthogonalLoop=1;jettySize=auto;html=1;" parent="1" source="FiaSwAk3uuY5vDZWoJKL-73" target="FiaSwAk3uuY5vDZWoJKL-76" edge="1">
                    <mxGeometry relative="1" as="geometry"/>
                </mxCell>
                <mxCell id="FiaSwAk3uuY5vDZWoJKL-73" value="div" style="rounded=0;whiteSpace=wrap;html=1;" parent="1" vertex="1">
                    <mxGeometry x="4161" y="1254" width="120" height="60" as="geometry"/>
                </mxCell>
                <mxCell id="FiaSwAk3uuY5vDZWoJKL-74" value="Time" style="rounded=0;whiteSpace=wrap;html=1;" parent="1" vertex="1">
                    <mxGeometry x="4393" y="1254" width="120" height="60" as="geometry"/>
                </mxCell>
                <mxCell id="FiaSwAk3uuY5vDZWoJKL-75" value="Alarm Title" style="rounded=0;whiteSpace=wrap;html=1;" parent="1" vertex="1">
                    <mxGeometry x="4071" y="1409" width="120" height="60" as="geometry"/>
                </mxCell>
                <mxCell id="FiaSwAk3uuY5vDZWoJKL-76" value="Active Icon" style="rounded=0;whiteSpace=wrap;html=1;" parent="1" vertex="1">
                    <mxGeometry x="4251" y="1409" width="120" height="60" as="geometry"/>
                </mxCell>
                <mxCell id="FiaSwAk3uuY5vDZWoJKL-87" style="edgeStyle=orthogonalEdgeStyle;rounded=0;orthogonalLoop=1;jettySize=auto;html=1;exitX=0.5;exitY=1;exitDx=0;exitDy=0;entryX=0.578;entryY=0.013;entryDx=0;entryDy=0;entryPerimeter=0;" parent="1" source="FiaSwAk3uuY5vDZWoJKL-73" target="FiaSwAk3uuY5vDZWoJKL-75" edge="1">
                    <mxGeometry relative="1" as="geometry"/>
                </mxCell>
                <mxCell id="FiaSwAk3uuY5vDZWoJKL-89" style="edgeStyle=orthogonalEdgeStyle;rounded=0;orthogonalLoop=1;jettySize=auto;html=1;exitX=0.5;exitY=1;exitDx=0;exitDy=0;" parent="1" source="FiaSwAk3uuY5vDZWoJKL-91" target="FiaSwAk3uuY5vDZWoJKL-94" edge="1">
                    <mxGeometry relative="1" as="geometry">
                        <mxPoint x="5270" y="764" as="sourcePoint"/>
                    </mxGeometry>
                </mxCell>
                <mxCell id="FiaSwAk3uuY5vDZWoJKL-90" style="edgeStyle=orthogonalEdgeStyle;rounded=0;orthogonalLoop=1;jettySize=auto;html=1;exitX=0.5;exitY=1;exitDx=0;exitDy=0;" parent="1" source="FiaSwAk3uuY5vDZWoJKL-91" target="FiaSwAk3uuY5vDZWoJKL-96" edge="1">
                    <mxGeometry relative="1" as="geometry">
                        <mxPoint x="5270" y="764" as="sourcePoint"/>
                    </mxGeometry>
                </mxCell>
                <mxCell id="FiaSwAk3uuY5vDZWoJKL-91" value="Card" style="rounded=0;whiteSpace=wrap;html=1;fillColor=#f8cecc;strokeColor=#b85450;" parent="1" vertex="1">
                    <mxGeometry x="5210" y="640" width="120" height="60" as="geometry"/>
                </mxCell>
                <mxCell id="FiaSwAk3uuY5vDZWoJKL-92" style="edgeStyle=orthogonalEdgeStyle;rounded=0;orthogonalLoop=1;jettySize=auto;html=1;exitX=0.5;exitY=1;exitDx=0;exitDy=0;" parent="1" source="FiaSwAk3uuY5vDZWoJKL-94" target="FiaSwAk3uuY5vDZWoJKL-99" edge="1">
                    <mxGeometry relative="1" as="geometry"/>
                </mxCell>
                <mxCell id="FiaSwAk3uuY5vDZWoJKL-93" style="edgeStyle=orthogonalEdgeStyle;rounded=0;orthogonalLoop=1;jettySize=auto;html=1;exitX=0.5;exitY=1;exitDx=0;exitDy=0;entryX=0.5;entryY=0;entryDx=0;entryDy=0;" parent="1" source="FiaSwAk3uuY5vDZWoJKL-94" target="FiaSwAk3uuY5vDZWoJKL-100" edge="1">
                    <mxGeometry relative="1" as="geometry"/>
                </mxCell>
                <mxCell id="FiaSwAk3uuY5vDZWoJKL-94" value="Card Header" style="rounded=0;whiteSpace=wrap;html=1;" parent="1" vertex="1">
                    <mxGeometry x="4950" y="814" width="120" height="60" as="geometry"/>
                </mxCell>
                <mxCell id="FiaSwAk3uuY5vDZWoJKL-95" style="edgeStyle=orthogonalEdgeStyle;rounded=0;orthogonalLoop=1;jettySize=auto;html=1;exitX=0.5;exitY=1;exitDx=0;exitDy=0;entryX=0.5;entryY=0;entryDx=0;entryDy=0;" parent="1" source="FiaSwAk3uuY5vDZWoJKL-96" target="FiaSwAk3uuY5vDZWoJKL-104" edge="1">
                    <mxGeometry relative="1" as="geometry"/>
                </mxCell>
                <mxCell id="FiaSwAk3uuY5vDZWoJKL-96" value="Card Content" style="rounded=0;whiteSpace=wrap;html=1;" parent="1" vertex="1">
                    <mxGeometry x="5450" y="814" width="120" height="60" as="geometry"/>
                </mxCell>
                <mxCell id="FiaSwAk3uuY5vDZWoJKL-97" style="edgeStyle=orthogonalEdgeStyle;rounded=0;orthogonalLoop=1;jettySize=auto;html=1;exitX=0.5;exitY=1;exitDx=0;exitDy=0;entryX=0.5;entryY=0;entryDx=0;entryDy=0;" parent="1" source="FiaSwAk3uuY5vDZWoJKL-99" target="FiaSwAk3uuY5vDZWoJKL-101" edge="1">
                    <mxGeometry relative="1" as="geometry"/>
                </mxCell>
                <mxCell id="FiaSwAk3uuY5vDZWoJKL-98" style="edgeStyle=orthogonalEdgeStyle;rounded=0;orthogonalLoop=1;jettySize=auto;html=1;exitX=0.5;exitY=1;exitDx=0;exitDy=0;entryX=0.5;entryY=0;entryDx=0;entryDy=0;" parent="1" source="FiaSwAk3uuY5vDZWoJKL-99" target="FiaSwAk3uuY5vDZWoJKL-102" edge="1">
                    <mxGeometry relative="1" as="geometry"/>
                </mxCell>
                <mxCell id="FiaSwAk3uuY5vDZWoJKL-99" value="div" style="rounded=0;whiteSpace=wrap;html=1;" parent="1" vertex="1">
                    <mxGeometry x="4780" y="944" width="120" height="60" as="geometry"/>
                </mxCell>
                <mxCell id="FiaSwAk3uuY5vDZWoJKL-100" value="Line" style="rounded=0;whiteSpace=wrap;html=1;" parent="1" vertex="1">
                    <mxGeometry x="5100" y="944" width="120" height="60" as="geometry"/>
                </mxCell>
                <mxCell id="FiaSwAk3uuY5vDZWoJKL-101" value="Title" style="rounded=0;whiteSpace=wrap;html=1;" parent="1" vertex="1">
                    <mxGeometry x="4700" y="1089" width="120" height="60" as="geometry"/>
                </mxCell>
                <mxCell id="FiaSwAk3uuY5vDZWoJKL-102" value="Iconic Button" style="rounded=0;whiteSpace=wrap;html=1;" parent="1" vertex="1">
                    <mxGeometry x="4860" y="1089" width="120" height="60" as="geometry"/>
                </mxCell>
                <mxCell id="FiaSwAk3uuY5vDZWoJKL-103" style="edgeStyle=orthogonalEdgeStyle;rounded=0;orthogonalLoop=1;jettySize=auto;html=1;exitX=0.5;exitY=1;exitDx=0;exitDy=0;entryX=0.5;entryY=0;entryDx=0;entryDy=0;" parent="1" source="FiaSwAk3uuY5vDZWoJKL-104" target="FiaSwAk3uuY5vDZWoJKL-107" edge="1">
                    <mxGeometry relative="1" as="geometry">
                        <mxPoint x="5509.941176470588" y="1024" as="targetPoint"/>
                    </mxGeometry>
                </mxCell>
                <mxCell id="FiaSwAk3uuY5vDZWoJKL-104" value="ul" style="rounded=0;whiteSpace=wrap;html=1;" parent="1" vertex="1">
                    <mxGeometry x="5450" y="934" width="120" height="60" as="geometry"/>
                </mxCell>
                <mxCell id="FiaSwAk3uuY5vDZWoJKL-105" style="edgeStyle=orthogonalEdgeStyle;rounded=0;orthogonalLoop=1;jettySize=auto;html=1;exitX=0.5;exitY=1;exitDx=0;exitDy=0;entryX=0.5;entryY=0;entryDx=0;entryDy=0;" parent="1" source="FiaSwAk3uuY5vDZWoJKL-107" target="FiaSwAk3uuY5vDZWoJKL-109" edge="1">
                    <mxGeometry relative="1" as="geometry"/>
                </mxCell>
                <mxCell id="FiaSwAk3uuY5vDZWoJKL-106" style="edgeStyle=orthogonalEdgeStyle;rounded=0;orthogonalLoop=1;jettySize=auto;html=1;exitX=0.5;exitY=1;exitDx=0;exitDy=0;entryX=0.5;entryY=0;entryDx=0;entryDy=0;" parent="1" source="FiaSwAk3uuY5vDZWoJKL-107" target="FiaSwAk3uuY5vDZWoJKL-110" edge="1">
                    <mxGeometry relative="1" as="geometry"/>
                </mxCell>
                <mxCell id="FiaSwAk3uuY5vDZWoJKL-107" value="li" style="rounded=0;whiteSpace=wrap;html=1;" parent="1" vertex="1">
                    <mxGeometry x="5450" y="1074" width="120" height="60" as="geometry"/>
                </mxCell>
                <mxCell id="FiaSwAk3uuY5vDZWoJKL-108" value="" style="edgeStyle=orthogonalEdgeStyle;rounded=0;orthogonalLoop=1;jettySize=auto;html=1;" parent="1" source="FiaSwAk3uuY5vDZWoJKL-109" target="FiaSwAk3uuY5vDZWoJKL-112" edge="1">
                    <mxGeometry relative="1" as="geometry"/>
                </mxCell>
                <mxCell id="FiaSwAk3uuY5vDZWoJKL-109" value="div" style="rounded=0;whiteSpace=wrap;html=1;" parent="1" vertex="1">
                    <mxGeometry x="5338" y="1249" width="120" height="60" as="geometry"/>
                </mxCell>
                <mxCell id="FiaSwAk3uuY5vDZWoJKL-110" value="Time" style="rounded=0;whiteSpace=wrap;html=1;" parent="1" vertex="1">
                    <mxGeometry x="5570" y="1249" width="120" height="60" as="geometry"/>
                </mxCell>
                <mxCell id="FiaSwAk3uuY5vDZWoJKL-111" value="Alarm Title" style="rounded=0;whiteSpace=wrap;html=1;" parent="1" vertex="1">
                    <mxGeometry x="5238" y="1394" width="120" height="60" as="geometry"/>
                </mxCell>
                <mxCell id="FiaSwAk3uuY5vDZWoJKL-112" value="Active Icon" style="rounded=0;whiteSpace=wrap;html=1;" parent="1" vertex="1">
                    <mxGeometry x="5418" y="1394" width="120" height="60" as="geometry"/>
                </mxCell>
                <mxCell id="FiaSwAk3uuY5vDZWoJKL-113" style="edgeStyle=orthogonalEdgeStyle;rounded=0;orthogonalLoop=1;jettySize=auto;html=1;exitX=0.5;exitY=1;exitDx=0;exitDy=0;entryX=0.578;entryY=0.013;entryDx=0;entryDy=0;entryPerimeter=0;" parent="1" source="FiaSwAk3uuY5vDZWoJKL-109" target="FiaSwAk3uuY5vDZWoJKL-111" edge="1">
                    <mxGeometry relative="1" as="geometry"/>
                </mxCell>
                <mxCell id="FiaSwAk3uuY5vDZWoJKL-117" style="edgeStyle=orthogonalEdgeStyle;rounded=0;orthogonalLoop=1;jettySize=auto;html=1;exitX=0.5;exitY=1;exitDx=0;exitDy=0;entryX=0.611;entryY=0.004;entryDx=0;entryDy=0;entryPerimeter=0;" parent="1" source="FiaSwAk3uuY5vDZWoJKL-59" target="FiaSwAk3uuY5vDZWoJKL-61" edge="1">
                    <mxGeometry relative="1" as="geometry"/>
                </mxCell>
                <mxCell id="FiaSwAk3uuY5vDZWoJKL-118" style="edgeStyle=orthogonalEdgeStyle;rounded=0;orthogonalLoop=1;jettySize=auto;html=1;exitX=0.5;exitY=1;exitDx=0;exitDy=0;entryX=0.431;entryY=0.022;entryDx=0;entryDy=0;entryPerimeter=0;" parent="1" source="FiaSwAk3uuY5vDZWoJKL-57" target="FiaSwAk3uuY5vDZWoJKL-59" edge="1">
                    <mxGeometry relative="1" as="geometry">
                        <mxPoint x="2928" y="918" as="sourcePoint"/>
                    </mxGeometry>
                </mxCell>
                <mxCell id="FiaSwAk3uuY5vDZWoJKL-121" style="edgeStyle=orthogonalEdgeStyle;rounded=0;orthogonalLoop=1;jettySize=auto;html=1;exitX=0.5;exitY=1;exitDx=0;exitDy=0;" parent="1" source="FiaSwAk3uuY5vDZWoJKL-122" target="FiaSwAk3uuY5vDZWoJKL-124" edge="1">
                    <mxGeometry relative="1" as="geometry">
                        <mxPoint x="6290" y="720" as="sourcePoint"/>
                    </mxGeometry>
                </mxCell>
                <mxCell id="FiaSwAk3uuY5vDZWoJKL-122" value="Card" style="rounded=0;whiteSpace=wrap;html=1;fillColor=#f8cecc;strokeColor=#b85450;" parent="1" vertex="1">
                    <mxGeometry x="6230" y="640" width="120" height="60" as="geometry"/>
                </mxCell>
                <mxCell id="FiaSwAk3uuY5vDZWoJKL-123" style="edgeStyle=orthogonalEdgeStyle;rounded=0;orthogonalLoop=1;jettySize=auto;html=1;exitX=0.5;exitY=1;exitDx=0;exitDy=0;entryX=0.5;entryY=0;entryDx=0;entryDy=0;" parent="1" source="FiaSwAk3uuY5vDZWoJKL-124" target="FiaSwAk3uuY5vDZWoJKL-126" edge="1">
                    <mxGeometry relative="1" as="geometry"/>
                </mxCell>
                <mxCell id="FiaSwAk3uuY5vDZWoJKL-124" value="Card Content" style="rounded=0;whiteSpace=wrap;html=1;" parent="1" vertex="1">
                    <mxGeometry x="6230" y="804" width="120" height="60" as="geometry"/>
                </mxCell>
                <mxCell id="FiaSwAk3uuY5vDZWoJKL-125" style="edgeStyle=orthogonalEdgeStyle;rounded=0;orthogonalLoop=1;jettySize=auto;html=1;exitX=0.5;exitY=1;exitDx=0;exitDy=0;" parent="1" source="FiaSwAk3uuY5vDZWoJKL-126" target="FiaSwAk3uuY5vDZWoJKL-129" edge="1">
                    <mxGeometry relative="1" as="geometry"/>
                </mxCell>
                <mxCell id="FiaSwAk3uuY5vDZWoJKL-126" value="div" style="rounded=0;whiteSpace=wrap;html=1;" parent="1" vertex="1">
                    <mxGeometry x="6030" y="963" width="120" height="60" as="geometry"/>
                </mxCell>
                <mxCell id="FiaSwAk3uuY5vDZWoJKL-127" style="edgeStyle=orthogonalEdgeStyle;rounded=0;orthogonalLoop=1;jettySize=auto;html=1;exitX=0.5;exitY=1;exitDx=0;exitDy=0;" parent="1" source="FiaSwAk3uuY5vDZWoJKL-128" target="FiaSwAk3uuY5vDZWoJKL-131" edge="1">
                    <mxGeometry relative="1" as="geometry"/>
                </mxCell>
                <mxCell id="FiaSwAk3uuY5vDZWoJKL-128" value="div" style="rounded=0;whiteSpace=wrap;html=1;" parent="1" vertex="1">
                    <mxGeometry x="6430" y="963" width="120" height="60" as="geometry"/>
                </mxCell>
                <mxCell id="FiaSwAk3uuY5vDZWoJKL-129" value="Sub Title" style="rounded=0;whiteSpace=wrap;html=1;" parent="1" vertex="1">
                    <mxGeometry x="6030" y="1113" width="120" height="60" as="geometry"/>
                </mxCell>
                <mxCell id="FiaSwAk3uuY5vDZWoJKL-130" value="Title" style="rounded=0;whiteSpace=wrap;html=1;" parent="1" vertex="1">
                    <mxGeometry x="6300" y="1113" width="120" height="60" as="geometry"/>
                </mxCell>
                <mxCell id="FiaSwAk3uuY5vDZWoJKL-131" value="Iconic Button" style="rounded=0;whiteSpace=wrap;html=1;" parent="1" vertex="1">
                    <mxGeometry x="6580" y="1113" width="120" height="60" as="geometry"/>
                </mxCell>
                <mxCell id="FiaSwAk3uuY5vDZWoJKL-132" style="edgeStyle=orthogonalEdgeStyle;rounded=0;orthogonalLoop=1;jettySize=auto;html=1;exitX=0.5;exitY=1;exitDx=0;exitDy=0;entryX=0.611;entryY=0.004;entryDx=0;entryDy=0;entryPerimeter=0;" parent="1" source="FiaSwAk3uuY5vDZWoJKL-128" target="FiaSwAk3uuY5vDZWoJKL-130" edge="1">
                    <mxGeometry relative="1" as="geometry"/>
                </mxCell>
                <mxCell id="FiaSwAk3uuY5vDZWoJKL-133" style="edgeStyle=orthogonalEdgeStyle;rounded=0;orthogonalLoop=1;jettySize=auto;html=1;exitX=0.5;exitY=1;exitDx=0;exitDy=0;entryX=0.431;entryY=0.022;entryDx=0;entryDy=0;entryPerimeter=0;" parent="1" source="FiaSwAk3uuY5vDZWoJKL-124" target="FiaSwAk3uuY5vDZWoJKL-128" edge="1">
                    <mxGeometry relative="1" as="geometry"/>
                </mxCell>
                <mxCell id="FiaSwAk3uuY5vDZWoJKL-149" style="edgeStyle=orthogonalEdgeStyle;rounded=0;orthogonalLoop=1;jettySize=auto;html=1;exitX=0.5;exitY=1;exitDx=0;exitDy=0;entryX=0.428;entryY=-0.033;entryDx=0;entryDy=0;entryPerimeter=0;" parent="1" source="FiaSwAk3uuY5vDZWoJKL-36" target="FiaSwAk3uuY5vDZWoJKL-44" edge="1">
                    <mxGeometry relative="1" as="geometry"/>
                </mxCell>
            </root>
        </mxGraphModel>
    </diagram>
</mxfile>